<mxfile host="app.diagrams.net" modified="2023-08-18T02:26:27.706Z" agent="Mozilla/5.0 (Windows NT 10.0; Win64; x64) AppleWebKit/537.36 (KHTML, like Gecko) Chrome/115.0.0.0 Safari/537.36" version="21.6.8" etag="rkw-lp1B_PW-rttmaI-i" type="github">
  <diagram name="Page-1" id="lhF3gMw8Nk1UGC9LlFIf">
    <mxGraphModel>
      <root>
        <mxCell id="0" />
        <mxCell id="1" parent="0" />
      </root>
    </mxGraphModel>
  </diagram>
</mxfile>
